<svg id="Layer_1" data-name="Layer 1" xmlns="http://www.w3.org/2000/svg" viewBox="0 0 841.89 244"><defs><style>.cls-1{fill:#086184;}.cls-2{fill:#f40606;}</style></defs><path class="cls-1" d="M429.64,67.24H393.47v38.69H374.11V13.5h19.36V51.13h36.17V13.5H449v92.43H429.64Z"/><path class="cls-1" d="M470.76,43h19.36v63H470.76Z"/><path class="cls-1" d="M626.89,58,629,39.65h-.85l-6.08,14.78L601,88.9h-6.22L572.63,54.3l-6.22-14.65h-.7l2.82,18.22v48.06H550.16V13.5h17.67l26.42,42.25,4.66,10.57h.56l4.24-10.83,25-42h17.52v92.43H626.89Z"/><path class="cls-1" d="M714.63,85.46H684.25l-7.49,20.47H657.4L693,12.84h14.27l35.61,93.09H722.54ZM689.2,70.94h21.19L703,50.34l-3-14.52h-.71l-3,14.65Z"/><path class="cls-1" d="M773.12,58.92,745.57,13.5h23.31l15.26,26.67,3.4,9.38,3.25-9.38,16-26.67h21L799.26,58l30,47.93h-23L788.81,77.41,785,67.64l-3.67,9.77L763.8,105.93H742.74Z"/><path class="cls-1" d="M445.14,225.55a34.34,34.34,0,0,1-12.84,4.82,86.94,86.94,0,0,1-16,1.46A61,61,0,0,1,397.49,229a40.58,40.58,0,0,1-15.67-9.28A45.09,45.09,0,0,1,371,203.05q-4-10.25-4-24.81,0-15.17,4.48-25.4a46.05,46.05,0,0,1,11.66-16.49,43.81,43.81,0,0,1,16-9,59.41,59.41,0,0,1,17.64-2.72,92.68,92.68,0,0,1,16,1.17,62.34,62.34,0,0,1,10.79,2.8l-4.26,17.08a32.72,32.72,0,0,0-8.58-2.36,84.07,84.07,0,0,0-12.05-.73q-13.08,0-21,8.7t-7.95,27a52.39,52.39,0,0,0,1.89,14.53,30.58,30.58,0,0,0,5.75,11.22,26.29,26.29,0,0,0,9.61,7.23,32.22,32.22,0,0,0,13.31,2.58,46.57,46.57,0,0,0,12-1.33,36.48,36.48,0,0,0,8.5-3.38Z"/><path class="cls-1" d="M513.41,207H479.54l-8.35,22.82H449.61L489.3,126h15.91l39.71,103.8H522.23Zm-28.36-16.2h23.63l-8.19-23-3.31-16.2h-.78l-3.32,16.34Z"/><path class="cls-1" d="M557.36,127.74q3.61-.58,7.8-1.11t8.35-.81c2.78-.19,5.49-.34,8.11-.44s5-.15,7.25-.15a86.42,86.42,0,0,1,15.2,1.33,43,43,0,0,1,13.39,4.57,25.27,25.27,0,0,1,9.46,8.9q3.54,5.67,3.54,14.21,0,12.66-6.3,20.61a32.52,32.52,0,0,1-16.86,11l7.72,4.57,25.21,39.31h-24.9l-25-40.34-11.35-1.92v42.26H557.36Zm33.08,15.46q-3.3,0-6.53.14a26.72,26.72,0,0,0-5,.59v29.89h9.14q9,0,14.34-3.83t5.35-12.66c0-4.42-1.47-7.87-4.41-10.38S596.12,143.2,590.44,143.2Z"/><path class="cls-1" d="M688.91,176H730V222a42.52,42.52,0,0,1-15.83,7.52A73.72,73.72,0,0,1,696,231.83a60.36,60.36,0,0,1-19.62-3.09,40.65,40.65,0,0,1-15.68-9.65,45.24,45.24,0,0,1-10.39-16.71q-3.78-10.15-3.78-24.14,0-14.58,4.49-24.81a46.51,46.51,0,0,1,11.81-16.64,45.34,45.34,0,0,1,16.47-9.27,61.44,61.44,0,0,1,18.59-2.87A92.56,92.56,0,0,1,714.5,126a83,83,0,0,1,11.43,2.8l-4.42,16.93a47.22,47.22,0,0,0-8.82-2.28,78.32,78.32,0,0,0-12.44-.81,38.89,38.89,0,0,0-12.45,1.91,24.28,24.28,0,0,0-9.84,6.26,29.17,29.17,0,0,0-6.46,11.11,51.85,51.85,0,0,0-2.29,16.5,51.32,51.32,0,0,0,2.21,16,30.12,30.12,0,0,0,6.14,11,24.19,24.19,0,0,0,9.22,6.41A30.76,30.76,0,0,0,698,213.87a33.88,33.88,0,0,0,8-1,18.9,18.9,0,0,0,6.61-2.87V190.61l-23.78-2.36Z"/><path class="cls-1" d="M745.46,178.24q0-25.77,12.13-39.68t34.66-13.91a51.58,51.58,0,0,1,20.64,3.82,38.7,38.7,0,0,1,14.65,10.9,46.48,46.48,0,0,1,8.66,16.93A79,79,0,0,1,839,178.24q0,25.77-12.21,39.68t-34.58,13.91a52,52,0,0,1-20.8-3.83,37.73,37.73,0,0,1-14.56-10.89,47,47,0,0,1-8.59-16.93A79.33,79.33,0,0,1,745.46,178.24Zm22.69,0a68.19,68.19,0,0,0,1.41,14.35,35.53,35.53,0,0,0,4.34,11.27,20.39,20.39,0,0,0,18.35,10q11.49,0,17.8-8.39t6.3-27.24a69.31,69.31,0,0,0-1.33-14,37.56,37.56,0,0,0-4.18-11.34,21,21,0,0,0-7.4-7.58,21.57,21.57,0,0,0-11.19-2.72q-11.5,0-17.8,8.61T768.15,178.24Z"/><path class="cls-2" d="M231,16.57H178.21v.18a15.75,15.75,0,0,0-1.83-.18H106.49a15.06,15.06,0,0,0,0,30.11h69.89a13.84,13.84,0,0,1,1.83.19,15,15,0,0,1,0,29.74,13.84,13.84,0,0,1-1.83.19H49.94a15.05,15.05,0,0,0-15.06,15h0a15.06,15.06,0,0,0,15.06,15.06H176.38a15.75,15.75,0,0,1,1.83.18,15,15,0,0,1,0,29.75,15.75,15.75,0,0,1-1.83.18H130a15.06,15.06,0,0,0,0,30.12h46.36a15.75,15.75,0,0,1,1.83.18,15,15,0,0,1,0,29.74,13.84,13.84,0,0,1-1.83.19H17.91A15.05,15.05,0,0,0,2.85,212.3h0a15.06,15.06,0,0,0,15.06,15.06H176.38a14.9,14.9,0,0,0,4-.6H231V148.59h52.81v78.17h52.81v-131H231Z"/><path class="cls-1" d="M310.23,69.38h0a26.41,26.41,0,1,0,0-52.81h0a26.41,26.41,0,1,0,0,52.81Z"/><circle class="cls-1" cx="89.09" cy="152.08" r="15.06"/><circle class="cls-2" cx="480.51" cy="21.77" r="9.6"/></svg>